<?xml version="1.0" encoding="UTF-8" standalone="no"?>
<!-- Generator: Adobe Illustrator 15.0.2, SVG Export Plug-In . SVG Version: 6.00 Build 0)  -->

<svg
   xmlns:dc="http://purl.org/dc/elements/1.1/"
   xmlns:cc="http://creativecommons.org/ns#"
   xmlns:rdf="http://www.w3.org/1999/02/22-rdf-syntax-ns#"
   xmlns:svg="http://www.w3.org/2000/svg"
   xmlns="http://www.w3.org/2000/svg"
   xmlns:sodipodi="http://sodipodi.sourceforge.net/DTD/sodipodi-0.dtd"
   xmlns:inkscape="http://www.inkscape.org/namespaces/inkscape"
   version="1.0"
   id="Calque_1"
   x="0px"
   y="0px"
   width="512px"
   height="512px"
   viewBox="0 0 512 512"
   enable-background="new 0 0 512 512"
   xml:space="preserve"
   inkscape:version="0.91 r13725"
   sodipodi:docname="responsive-design-logo.svg"><metadata
     id="metadata10"><rdf:RDF><cc:Work
         rdf:about=""><dc:format>image/svg+xml</dc:format><dc:type
           rdf:resource="http://purl.org/dc/dcmitype/StillImage" /></cc:Work></rdf:RDF></metadata><defs
     id="defs8" /><sodipodi:namedview
     pagecolor="#ffffff"
     bordercolor="#666666"
     borderopacity="1"
     objecttolerance="10"
     gridtolerance="10"
     guidetolerance="10"
     inkscape:pageopacity="0"
     inkscape:pageshadow="2"
     inkscape:window-width="2560"
     inkscape:window-height="1377"
     id="namedview6"
     showgrid="false"
     inkscape:zoom="0.4609375"
     inkscape:cx="256"
     inkscape:cy="256"
     inkscape:window-x="-8"
     inkscape:window-y="-8"
     inkscape:window-maximized="1"
     inkscape:current-layer="Calque_1" /><g
     id="iphone" /><path
     fill="#1A171B"
     d="M464.068,111.809H52.56v0.001c-6.471,0-11.766,5.294-11.766,11.766v268.849  c0,6.472,5.295,11.767,11.766,11.767h411.508c6.471,0,11.767-5.295,11.767-11.767v-268.85  C475.834,117.104,470.538,111.809,464.068,111.809z M181.256,324.081l65.103,22.27l-72.458,26.371l-52.699-144.802l88.421-32.18  l-37.518,109.679C169.489,313.064,173.606,321.465,181.256,324.081z M221.419,316.619c0.734-2.145,3.074-3.296,5.218-2.562  l14.797,5.062c2.153,0.736,3.297,3.079,2.563,5.224c-0.735,2.149-3.073,3.299-5.227,2.562l-14.797-5.062  C221.829,321.109,220.684,318.769,221.419,316.619z M197.439,288.393l44.187-129.175l82.805,28.325l-44.187,129.175L197.439,288.393  z M343.174,189.792c2.615-7.647-1.503-16.047-9.15-18.664l-29.27-10.012l37.992-13.827l52.7,144.802l-99.675,36.276L343.174,189.792  z M61.288,132.123h264.495l-51.252,18.654l-30.433-10.41c-7.649-2.616-16.049,1.502-18.665,9.149l-7.475,21.851l-102.67,37.368  c-11.562,4.206-17.522,16.987-13.312,28.547l51.174,140.6c0.805,2.215,1.927,4.222,3.292,5.993H61.288V132.123z M455.339,383.876  H201.83l199.508-72.612c11.56-4.211,17.521-16.992,13.312-28.554l-51.177-140.602c-1.494-4.104-4.071-7.497-7.286-9.985h99.152  V383.876z"
     id="path4"
     style="fill:#ffffff;fill-opacity:1" /></svg>